<?xml version="1.0" encoding="UTF-8"?>
<svg xmlns="http://www.w3.org/2000/svg" width="1500" height="920" viewBox="0 0 1500 920">
<defs>
<marker id="arrow" markerWidth="10" markerHeight="8" refX="9" refY="4" orient="auto" markerUnits="strokeWidth">
<path d="M0,0 L10,4 L0,8 z" fill="#000000" />
</marker>
</defs>
<rect x="0" y="0" width="1500" height="920" rx="0" ry="0" stroke="#000000" stroke-width="0" fill="#ffffff" />
<text x="750.0" y="48" text-anchor="middle" style="font-family:Times New Roman, Times, serif;font-size:27px;font-weight:bold;font-style:normal;fill:#000000;">Figure 4.7. Use Case Diagram</text><text x="750.0" y="78" text-anchor="middle" style="font-family:Times New Roman, Times, serif;font-size:16px;font-weight:normal;font-style:normal;fill:#000000;">System boundary with student and admin use cases</text>
<rect x="250" y="170" width="1000" height="610" rx="0" ry="0" stroke="#000000" stroke-width="1.2" fill="#ffffff" /><circle cx="120" cy="263" r="11" stroke="#000000" stroke-width="1.2" fill="#ffffff" /><line x1="120" y1="274" x2="120" y2="303" stroke="#000000" stroke-width="1.2" fill="none" /><line x1="100" y1="285" x2="140" y2="285" stroke="#000000" stroke-width="1.2" fill="none" /><line x1="120" y1="303" x2="104" y2="325" stroke="#000000" stroke-width="1.2" fill="none" /><line x1="120" y1="303" x2="136" y2="325" stroke="#000000" stroke-width="1.2" fill="none" /><text x="120" y="349.0" text-anchor="middle" style="font-family:Times New Roman, Times, serif;font-size:18px;fill:#000000;"><tspan x="120" dy="0">Student</tspan></text><circle cx="1380" cy="263" r="11" stroke="#000000" stroke-width="1.2" fill="#ffffff" /><line x1="1380" y1="274" x2="1380" y2="303" stroke="#000000" stroke-width="1.2" fill="none" /><line x1="1360" y1="285" x2="1400" y2="285" stroke="#000000" stroke-width="1.2" fill="none" /><line x1="1380" y1="303" x2="1364" y2="325" stroke="#000000" stroke-width="1.2" fill="none" /><line x1="1380" y1="303" x2="1396" y2="325" stroke="#000000" stroke-width="1.2" fill="none" /><text x="1380" y="349.0" text-anchor="middle" style="font-family:Times New Roman, Times, serif;font-size:18px;fill:#000000;"><tspan x="1380" dy="0">Admin</tspan></text><ellipse cx="380" cy="300" rx="90" ry="30" stroke="#000000" stroke-width="1.2" fill="#ffffff" /><text x="380" y="304.0" text-anchor="middle" style="font-family:Times New Roman, Times, serif;font-size:17px;fill:#000000;"><tspan x="380" dy="0">Login</tspan></text><ellipse cx="690" cy="300" rx="90" ry="30" stroke="#000000" stroke-width="1.2" fill="#ffffff" /><text x="690" y="304.0" text-anchor="middle" style="font-family:Times New Roman, Times, serif;font-size:17px;fill:#000000;"><tspan x="690" dy="0">Start Exam</tspan></text><ellipse cx="380" cy="430" rx="90" ry="30" stroke="#000000" stroke-width="1.2" fill="#ffffff" /><text x="380" y="434.0" text-anchor="middle" style="font-family:Times New Roman, Times, serif;font-size:17px;fill:#000000;"><tspan x="380" dy="0">Attend Exam</tspan></text><ellipse cx="690" cy="430" rx="90" ry="30" stroke="#000000" stroke-width="1.2" fill="#ffffff" /><text x="690" y="434.0" text-anchor="middle" style="font-family:Times New Roman, Times, serif;font-size:17px;fill:#000000;"><tspan x="690" dy="0">Get Alerts</tspan></text><ellipse cx="535" cy="560" rx="90" ry="30" stroke="#000000" stroke-width="1.2" fill="#ffffff" /><text x="535" y="564.0" text-anchor="middle" style="font-family:Times New Roman, Times, serif;font-size:17px;fill:#000000;"><tspan x="535" dy="0">Submit Exam</tspan></text><ellipse cx="980" cy="300" rx="90" ry="30" stroke="#000000" stroke-width="1.2" fill="#ffffff" /><text x="980" y="304.0" text-anchor="middle" style="font-family:Times New Roman, Times, serif;font-size:17px;fill:#000000;"><tspan x="980" dy="0">Monitor Students</tspan></text><ellipse cx="1160" cy="300" rx="90" ry="30" stroke="#000000" stroke-width="1.2" fill="#ffffff" /><text x="1160" y="304.0" text-anchor="middle" style="font-family:Times New Roman, Times, serif;font-size:17px;fill:#000000;"><tspan x="1160" dy="0">View Alerts</tspan></text><ellipse cx="980" cy="430" rx="90" ry="30" stroke="#000000" stroke-width="1.2" fill="#ffffff" /><text x="980" y="423.8" text-anchor="middle" style="font-family:Times New Roman, Times, serif;font-size:17px;fill:#000000;"><tspan x="980" dy="0">Review</tspan><tspan x="980" dy="20.4">Violations</tspan></text><ellipse cx="1160" cy="430" rx="90" ry="30" stroke="#000000" stroke-width="1.2" fill="#ffffff" /><text x="1160" y="434.0" text-anchor="middle" style="font-family:Times New Roman, Times, serif;font-size:17px;fill:#000000;"><tspan x="1160" dy="0">Generate Reports</tspan></text><line x1="160" y1="300" x2="290" y2="300" stroke="#000000" stroke-width="1.4" fill="none" marker-end="url(#arrow)" /><line x1="160" y1="300" x2="290" y2="430" stroke="#000000" stroke-width="1.4" fill="none" marker-end="url(#arrow)" /><line x1="160" y1="300" x2="445" y2="560" stroke="#000000" stroke-width="1.4" fill="none" marker-end="url(#arrow)" /><line x1="1320" y1="300" x2="1070" y2="300" stroke="#000000" stroke-width="1.4" fill="none" marker-end="url(#arrow)" /><line x1="1320" y1="300" x2="1250" y2="430" stroke="#000000" stroke-width="1.4" fill="none" marker-end="url(#arrow)" /><line x1="1320" y1="300" x2="1070" y2="430" stroke="#000000" stroke-width="1.4" fill="none" marker-end="url(#arrow)" /><line x1="1320" y1="300" x2="1250" y2="300" stroke="#000000" stroke-width="1.4" fill="none" marker-end="url(#arrow)" /><line x1="1320" y1="300" x2="970" y2="430" stroke="#000000" stroke-width="1.4" fill="none" marker-end="url(#arrow)" /><line x1="470" y1="300" x2="620" y2="300" stroke="#000000" stroke-width="1.4" fill="none" marker-end="url(#arrow)" /><line x1="780" y1="300" x2="920" y2="300" stroke="#000000" stroke-width="1.4" fill="none" marker-end="url(#arrow)" /><line x1="470" y1="430" x2="620" y2="430" stroke="#000000" stroke-width="1.4" fill="none" marker-end="url(#arrow)" /><line x1="780" y1="430" x2="920" y2="430" stroke="#000000" stroke-width="1.4" fill="none" marker-end="url(#arrow)" />
</svg>