<?xml version="1.0" encoding="UTF-8"?>
<svg xmlns="http://www.w3.org/2000/svg" width="1500" height="980" viewBox="0 0 1500 980">
<defs>
<marker id="arrow" markerWidth="10" markerHeight="8" refX="9" refY="4" orient="auto" markerUnits="strokeWidth">
<path d="M0,0 L10,4 L0,8 z" fill="#000000" />
</marker>
</defs>
<rect x="0" y="0" width="1500" height="980" rx="0" ry="0" stroke="#000000" stroke-width="0" fill="#ffffff" />
<text x="750.0" y="48" text-anchor="middle" style="font-family:Times New Roman, Times, serif;font-size:27px;font-weight:bold;font-style:normal;fill:#000000;">Figure 4.1. Architectural Design</text><text x="750.0" y="78" text-anchor="middle" style="font-family:Times New Roman, Times, serif;font-size:16px;font-weight:normal;font-style:normal;fill:#000000;">High-level system architecture and data flow</text>
<rect x="70" y="170" width="1360" height="680" rx="0" ry="0" stroke="#000000" stroke-width="1.2" fill="#ffffff" /><text x="750" y="205" text-anchor="middle" style="font-family:Times New Roman, Times, serif;font-size:22px;font-weight:bold;font-style:normal;fill:#000000;">AI Smart Exam Proctoring System</text><rect x="120" y="280" width="300" height="170" rx="10" ry="10" stroke="#000000" stroke-width="1.2" fill="#ffffff" /><text x="270" y="352.4" text-anchor="middle" style="font-family:Times New Roman, Times, serif;font-size:21px;fill:#000000;"><tspan x="270" dy="0">Frontend</tspan><tspan x="270" dy="25.2">React Web App</tspan></text><rect x="460" y="280" width="300" height="170" rx="10" ry="10" stroke="#000000" stroke-width="1.2" fill="#ffffff" /><text x="610" y="352.4" text-anchor="middle" style="font-family:Times New Roman, Times, serif;font-size:21px;fill:#000000;"><tspan x="610" dy="0">Backend API</tspan><tspan x="610" dy="25.2">Node.js / Express</tspan></text><rect x="800" y="255" width="340" height="220" rx="10" ry="10" stroke="#000000" stroke-width="1.2" fill="#ffffff" /><text x="970" y="285" text-anchor="middle" style="font-family:Times New Roman, Times, serif;font-size:21px;font-weight:bold;font-style:normal;fill:#000000;">AI Processing Module</text><line x1="840" y1="300" x2="1100" y2="300" stroke="#000000" stroke-width="1.0" fill="none" /><text x="970" y="334.2" text-anchor="middle" style="font-family:Times New Roman, Times, serif;font-size:18px;fill:#000000;"><tspan x="970" dy="0">Face Detection</tspan><tspan x="970" dy="21.599999999999998">(MediaPipe)</tspan></text><text x="970" y="395.0" text-anchor="middle" style="font-family:Times New Roman, Times, serif;font-size:18px;fill:#000000;"><tspan x="970" dy="0">Gaze Tracking</tspan></text><text x="970" y="434.2" text-anchor="middle" style="font-family:Times New Roman, Times, serif;font-size:18px;fill:#000000;"><tspan x="970" dy="0">YOLO Phone</tspan><tspan x="970" dy="21.599999999999998">Detection</tspan></text><rect x="1170" y="255" width="220" height="90" rx="10" ry="10" stroke="#000000" stroke-width="1.2" fill="#ffffff" /><text x="1280" y="293.6" text-anchor="middle" style="font-family:Times New Roman, Times, serif;font-size:19px;fill:#000000;"><tspan x="1280" dy="0">Cloud Storage</tspan><tspan x="1280" dy="22.8">Cloudinary</tspan></text><rect x="1170" y="365" width="220" height="90" rx="10" ry="10" stroke="#000000" stroke-width="1.2" fill="#ffffff" /><text x="1280" y="403.6" text-anchor="middle" style="font-family:Times New Roman, Times, serif;font-size:19px;fill:#000000;"><tspan x="1280" dy="0">Database</tspan><tspan x="1280" dy="22.8">MongoDB</tspan></text><rect x="520" y="520" width="460" height="190" rx="10" ry="10" stroke="#000000" stroke-width="1.2" fill="#ffffff" /><text x="750" y="584.8" text-anchor="middle" style="font-family:Times New Roman, Times, serif;font-size:21px;fill:#000000;"><tspan x="750" dy="0">Admin Dashboard</tspan><tspan x="750" dy="25.2">Monitoring, alerts,</tspan><tspan x="750" dy="25.2">review</tspan></text><line x1="420" y1="365" x2="460" y2="365" stroke="#000000" stroke-width="1.4" fill="none" marker-end="url(#arrow)" /><line x1="760" y1="365" x2="800" y2="365" stroke="#000000" stroke-width="1.4" fill="none" marker-end="url(#arrow)" /><line x1="970" y1="475" x2="970" y2="520" stroke="#000000" stroke-width="1.4" fill="none" marker-end="url(#arrow)" /><line x1="1120" y1="310" x2="1170" y2="310" stroke="#000000" stroke-width="1.4" fill="none" marker-end="url(#arrow)" /><line x1="1120" y1="410" x2="1170" y2="410" stroke="#000000" stroke-width="1.4" fill="none" marker-end="url(#arrow)" /><line x1="610" y1="450" x2="610" y2="520" stroke="#000000" stroke-width="1.4" fill="none" marker-end="url(#arrow)" /><line x1="970" y1="475" x2="1280" y2="475" stroke="#000000" stroke-width="1.4" fill="none" marker-end="url(#arrow)" /><line x1="270" y1="450" x2="270" y2="520" stroke="#000000" stroke-width="1.4" fill="none" marker-end="url(#arrow)" /><line x1="270" y1="520" x2="520" y2="610" stroke="#000000" stroke-width="1.4" fill="none" marker-end="url(#arrow)" /><line x1="1280" y1="475" x2="1280" y2="520" stroke="#000000" stroke-width="1.4" fill="none" marker-end="url(#arrow)" /><line x1="1280" y1="520" x2="980" y2="610" stroke="#000000" stroke-width="1.4" fill="none" marker-end="url(#arrow)" />
</svg>