<?xml version="1.0" encoding="UTF-8"?>
<svg xmlns="http://www.w3.org/2000/svg" width="1500" height="940" viewBox="0 0 1500 940">
<defs>
<marker id="arrow" markerWidth="10" markerHeight="8" refX="9" refY="4" orient="auto" markerUnits="strokeWidth">
<path d="M0,0 L10,4 L0,8 z" fill="#000000" />
</marker>
</defs>
<rect x="0" y="0" width="1500" height="940" rx="0" ry="0" stroke="#000000" stroke-width="0" fill="#ffffff" />
<text x="750.0" y="48" text-anchor="middle" style="font-family:Times New Roman, Times, serif;font-size:27px;font-weight:bold;font-style:normal;fill:#000000;">Figure 4.6. Sequence Diagram - User Monitoring &amp; Detection</text><text x="750.0" y="78" text-anchor="middle" style="font-family:Times New Roman, Times, serif;font-size:16px;font-weight:normal;font-style:normal;fill:#000000;">Continuous frame processing loop for monitoring</text>
<rect x="90" y="130" width="140" height="54" rx="0" ry="0" stroke="#000000" stroke-width="1.2" fill="#ffffff" /><text x="160" y="149.2" text-anchor="middle" style="font-family:Times New Roman, Times, serif;font-size:18px;fill:#000000;"><tspan x="160" dy="0">Frame</tspan><tspan x="160" dy="21.599999999999998">Capture</tspan></text><line x1="160" y1="184" x2="160" y2="820" stroke="#000000" stroke-width="1.0" fill="none" /><rect x="350" y="130" width="140" height="54" rx="0" ry="0" stroke="#000000" stroke-width="1.2" fill="#ffffff" /><text x="420" y="149.2" text-anchor="middle" style="font-family:Times New Roman, Times, serif;font-size:18px;fill:#000000;"><tspan x="420" dy="0">Face</tspan><tspan x="420" dy="21.599999999999998">Detection</tspan></text><line x1="420" y1="184" x2="420" y2="820" stroke="#000000" stroke-width="1.0" fill="none" /><rect x="610" y="130" width="140" height="54" rx="0" ry="0" stroke="#000000" stroke-width="1.2" fill="#ffffff" /><text x="680" y="149.2" text-anchor="middle" style="font-family:Times New Roman, Times, serif;font-size:18px;fill:#000000;"><tspan x="680" dy="0">Gaze</tspan><tspan x="680" dy="21.599999999999998">Tracking</tspan></text><line x1="680" y1="184" x2="680" y2="820" stroke="#000000" stroke-width="1.0" fill="none" /><rect x="870" y="130" width="140" height="54" rx="0" ry="0" stroke="#000000" stroke-width="1.2" fill="#ffffff" /><text x="940" y="149.2" text-anchor="middle" style="font-family:Times New Roman, Times, serif;font-size:18px;fill:#000000;"><tspan x="940" dy="0">Phone</tspan><tspan x="940" dy="21.599999999999998">Detection</tspan></text><line x1="940" y1="184" x2="940" y2="820" stroke="#000000" stroke-width="1.0" fill="none" /><rect x="1130" y="130" width="140" height="54" rx="0" ry="0" stroke="#000000" stroke-width="1.2" fill="#ffffff" /><text x="1200" y="149.2" text-anchor="middle" style="font-family:Times New Roman, Times, serif;font-size:18px;fill:#000000;"><tspan x="1200" dy="0">Aggregation</tspan><tspan x="1200" dy="21.599999999999998">&amp; Risk</tspan></text><line x1="1200" y1="184" x2="1200" y2="820" stroke="#000000" stroke-width="1.0" fill="none" /><line x1="240" y1="235" x2="360" y2="235" stroke="#000000" stroke-width="1.2" fill="none" marker-end="url(#arrow)" /><text x="300.0" y="227" text-anchor="middle" style="font-family:Times New Roman, Times, serif;font-size:15px;font-weight:normal;font-style:normal;fill:#000000;">Frame</text><rect x="412" y="233" width="16" height="70" rx="0" ry="0" stroke="#000000" stroke-width="1.0" fill="#ffffff" /><line x1="420" y1="315" x2="620" y2="315" stroke="#000000" stroke-width="1.2" fill="none" marker-end="url(#arrow)" /><text x="520.0" y="307" text-anchor="middle" style="font-family:Times New Roman, Times, serif;font-size:15px;font-weight:normal;font-style:normal;fill:#000000;">Face landmarks</text><rect x="672" y="313" width="16" height="70" rx="0" ry="0" stroke="#000000" stroke-width="1.0" fill="#ffffff" /><line x1="680" y1="395" x2="900" y2="395" stroke="#000000" stroke-width="1.2" fill="none" marker-end="url(#arrow)" /><text x="790.0" y="387" text-anchor="middle" style="font-family:Times New Roman, Times, serif;font-size:15px;font-weight:normal;font-style:normal;fill:#000000;">Gaze vector</text><rect x="932" y="393" width="16" height="70" rx="0" ry="0" stroke="#000000" stroke-width="1.0" fill="#ffffff" /><line x1="940" y1="475" x2="1180" y2="475" stroke="#000000" stroke-width="1.2" fill="none" marker-end="url(#arrow)" /><text x="1060.0" y="467" text-anchor="middle" style="font-family:Times New Roman, Times, serif;font-size:15px;font-weight:normal;font-style:normal;fill:#000000;">Detection result</text><rect x="1192" y="473" width="16" height="70" rx="0" ry="0" stroke="#000000" stroke-width="1.0" fill="#ffffff" /><line x1="1200" y1="555" x2="940" y2="555" stroke="#000000" stroke-width="1.2" fill="none" marker-end="url(#arrow)" /><text x="1070.0" y="547" text-anchor="middle" style="font-family:Times New Roman, Times, serif;font-size:15px;font-weight:normal;font-style:normal;fill:#000000;">Aggregate event</text><line x1="940" y1="635" x2="1200" y2="635" stroke="#000000" stroke-width="1.2" fill="none" marker-end="url(#arrow)" /><text x="1070.0" y="627" text-anchor="middle" style="font-family:Times New Roman, Times, serif;font-size:15px;font-weight:normal;font-style:normal;fill:#000000;">Risk update</text><line x1="1200" y1="715" x2="940" y2="715" stroke="#000000" stroke-width="1.2" fill="none" marker-end="url(#arrow)" /><text x="1070.0" y="707" text-anchor="middle" style="font-family:Times New Roman, Times, serif;font-size:15px;font-weight:normal;font-style:normal;fill:#000000;">Continue monitoring</text><text x="880" y="860" text-anchor="middle" style="font-family:Times New Roman, Times, serif;font-size:16px;font-weight:normal;font-style:normal;fill:#000000;">Continuous loop: capture -&gt; detect -&gt; aggregate -&gt; score -&gt; repeat</text>
</svg>