<?xml version="1.0" encoding="UTF-8"?>
<svg xmlns="http://www.w3.org/2000/svg" width="1600" height="1000" viewBox="0 0 1600 1000">
<defs>
<marker id="arrow" markerWidth="10" markerHeight="8" refX="9" refY="4" orient="auto" markerUnits="strokeWidth">
<path d="M0,0 L10,4 L0,8 z" fill="#000000" />
</marker>
</defs>
<rect x="0" y="0" width="1600" height="1000" rx="0" ry="0" stroke="#000000" stroke-width="0" fill="#ffffff" />
<text x="800.0" y="48" text-anchor="middle" style="font-family:Times New Roman, Times, serif;font-size:27px;font-weight:bold;font-style:normal;fill:#000000;">Figure 4.5. Sequence Diagram - Exam Proctoring Process</text><text x="800.0" y="78" text-anchor="middle" style="font-family:Times New Roman, Times, serif;font-size:16px;font-weight:normal;font-style:normal;fill:#000000;">Lifelines and activation bars from login to alert generation</text>
<rect x="80" y="155" width="140" height="54" rx="0" ry="0" stroke="#000000" stroke-width="1.2" fill="#ffffff" /><text x="150" y="185.0" text-anchor="middle" style="font-family:Times New Roman, Times, serif;font-size:18px;fill:#000000;"><tspan x="150" dy="0">Student</tspan></text><line x1="150" y1="209" x2="150" y2="885" stroke="#000000" stroke-width="1.0" fill="none" /><rect x="350" y="155" width="140" height="54" rx="0" ry="0" stroke="#000000" stroke-width="1.2" fill="#ffffff" /><text x="420" y="185.0" text-anchor="middle" style="font-family:Times New Roman, Times, serif;font-size:18px;fill:#000000;"><tspan x="420" dy="0">Frontend</tspan></text><line x1="420" y1="209" x2="420" y2="885" stroke="#000000" stroke-width="1.0" fill="none" /><rect x="650" y="155" width="140" height="54" rx="0" ry="0" stroke="#000000" stroke-width="1.2" fill="#ffffff" /><text x="720" y="185.0" text-anchor="middle" style="font-family:Times New Roman, Times, serif;font-size:18px;fill:#000000;"><tspan x="720" dy="0">Backend</tspan></text><line x1="720" y1="209" x2="720" y2="885" stroke="#000000" stroke-width="1.0" fill="none" /><rect x="970" y="155" width="140" height="54" rx="0" ry="0" stroke="#000000" stroke-width="1.2" fill="#ffffff" /><text x="1040" y="185.0" text-anchor="middle" style="font-family:Times New Roman, Times, serif;font-size:18px;fill:#000000;"><tspan x="1040" dy="0">AI Modules</tspan></text><line x1="1040" y1="209" x2="1040" y2="885" stroke="#000000" stroke-width="1.0" fill="none" /><rect x="1290" y="155" width="140" height="54" rx="0" ry="0" stroke="#000000" stroke-width="1.2" fill="#ffffff" /><text x="1360" y="185.0" text-anchor="middle" style="font-family:Times New Roman, Times, serif;font-size:18px;fill:#000000;"><tspan x="1360" dy="0">Database</tspan></text><line x1="1360" y1="209" x2="1360" y2="885" stroke="#000000" stroke-width="1.0" fill="none" /><line x1="220" y1="230" x2="350" y2="230" stroke="#000000" stroke-width="1.2" fill="none" marker-end="url(#arrow)" /><text x="285.0" y="222" text-anchor="middle" style="font-family:Times New Roman, Times, serif;font-size:15px;font-weight:normal;font-style:normal;fill:#000000;">Login</text><rect x="412" y="228" width="16" height="70" rx="0" ry="0" stroke="#000000" stroke-width="1.0" fill="#ffffff" /><line x1="490" y1="320" x2="650" y2="320" stroke="#000000" stroke-width="1.2" fill="none" marker-end="url(#arrow)" /><text x="570.0" y="312" text-anchor="middle" style="font-family:Times New Roman, Times, serif;font-size:15px;font-weight:normal;font-style:normal;fill:#000000;">Authenticate user</text><rect x="712" y="318" width="16" height="80" rx="0" ry="0" stroke="#000000" stroke-width="1.0" fill="#ffffff" /><line x1="790" y1="420" x2="980" y2="420" stroke="#000000" stroke-width="1.2" fill="none" marker-end="url(#arrow)" /><text x="885.0" y="412" text-anchor="middle" style="font-family:Times New Roman, Times, serif;font-size:15px;font-weight:normal;font-style:normal;fill:#000000;">Start exam</text><rect x="1032" y="418" width="16" height="95" rx="0" ry="0" stroke="#000000" stroke-width="1.0" fill="#ffffff" /><line x1="1120" y1="525" x2="1265" y2="525" stroke="#000000" stroke-width="1.2" fill="none" marker-end="url(#arrow)" /><text x="1192.5" y="517" text-anchor="middle" style="font-family:Times New Roman, Times, serif;font-size:15px;font-weight:normal;font-style:normal;fill:#000000;">Store session</text><rect x="1352" y="520" width="16" height="80" rx="0" ry="0" stroke="#000000" stroke-width="1.0" fill="#ffffff" /><line x1="350" y1="590" x2="650" y2="590" stroke="#000000" stroke-width="1.2" fill="none" marker-end="url(#arrow)" /><text x="500.0" y="582" text-anchor="middle" style="font-family:Times New Roman, Times, serif;font-size:15px;font-weight:normal;font-style:normal;fill:#000000;">Start Webcam Stream</text><line x1="650" y1="670" x2="980" y2="670" stroke="#000000" stroke-width="1.2" fill="none" marker-end="url(#arrow)" /><text x="815.0" y="662" text-anchor="middle" style="font-family:Times New Roman, Times, serif;font-size:15px;font-weight:normal;font-style:normal;fill:#000000;">Frame processing</text><rect x="1032" y="665" width="16" height="110" rx="0" ry="0" stroke="#000000" stroke-width="1.0" fill="#ffffff" /><line x1="980" y1="760" x2="1265" y2="760" stroke="#000000" stroke-width="1.2" fill="none" marker-end="url(#arrow)" /><text x="1122.5" y="752" text-anchor="middle" style="font-family:Times New Roman, Times, serif;font-size:15px;font-weight:normal;font-style:normal;fill:#000000;">Log event</text><line x1="1265" y1="840" x2="980" y2="840" stroke="#000000" stroke-width="1.2" fill="none" marker-end="url(#arrow)" /><text x="1122.5" y="832" text-anchor="middle" style="font-family:Times New Roman, Times, serif;font-size:15px;font-weight:normal;font-style:normal;fill:#000000;">Risk score</text><line x1="980" y1="900" x2="650" y2="900" stroke="#000000" stroke-width="1.2" fill="none" marker-end="url(#arrow)" /><text x="815.0" y="892" text-anchor="middle" style="font-family:Times New Roman, Times, serif;font-size:15px;font-weight:normal;font-style:normal;fill:#000000;">Alert trigger</text><text x="560" y="930" text-anchor="middle" style="font-family:Times New Roman, Times, serif;font-size:16px;font-weight:normal;font-style:normal;fill:#000000;">Continuous monitoring</text><line x1="650" y1="430" x2="980" y2="430" stroke="#000000" stroke-width="1.2" fill="none" marker-end="url(#arrow)" stroke-dasharray="7 6" /><text x="815.0" y="422" text-anchor="middle" style="font-family:Times New Roman, Times, serif;font-size:15px;font-weight:normal;font-style:normal;fill:#000000;">Send frame</text><line x1="980" y1="460" x2="650" y2="460" stroke="#000000" stroke-width="1.2" fill="none" marker-end="url(#arrow)" stroke-dasharray="7 6" /><text x="815.0" y="452" text-anchor="middle" style="font-family:Times New Roman, Times, serif;font-size:15px;font-weight:normal;font-style:normal;fill:#000000;">Detection result</text><line x1="650" y1="500" x2="980" y2="500" stroke="#000000" stroke-width="1.2" fill="none" marker-end="url(#arrow)" stroke-dasharray="7 6" /><text x="815.0" y="492" text-anchor="middle" style="font-family:Times New Roman, Times, serif;font-size:15px;font-weight:normal;font-style:normal;fill:#000000;">Record event</text><line x1="980" y1="610" x2="1265" y2="610" stroke="#000000" stroke-width="1.2" fill="none" marker-end="url(#arrow)" stroke-dasharray="7 6" /><text x="1122.5" y="602" text-anchor="middle" style="font-family:Times New Roman, Times, serif;font-size:15px;font-weight:normal;font-style:normal;fill:#000000;">Save risk metrics</text>
</svg>