<?xml version="1.0" encoding="UTF-8"?>
<svg xmlns="http://www.w3.org/2000/svg" width="1400" height="1240" viewBox="0 0 1400 1240">
<defs>
<marker id="arrow" markerWidth="10" markerHeight="8" refX="9" refY="4" orient="auto" markerUnits="strokeWidth">
<path d="M0,0 L10,4 L0,8 z" fill="#000000" />
</marker>
</defs>
<rect x="0" y="0" width="1400" height="1240" rx="0" ry="0" stroke="#000000" stroke-width="0" fill="#ffffff" />
<text x="700.0" y="48" text-anchor="middle" style="font-family:Times New Roman, Times, serif;font-size:27px;font-weight:bold;font-style:normal;fill:#000000;">Figure 4.8. Activity Diagram - Proctoring Workflow</text><text x="700.0" y="78" text-anchor="middle" style="font-family:Times New Roman, Times, serif;font-size:16px;font-weight:normal;font-style:normal;fill:#000000;">Operational workflow from login to result storage</text>
<circle cx="700" cy="120" r="22" stroke="#000000" stroke-width="1.2" fill="#ffffff" /><line x1="700" y1="142" x2="700" y2="175" stroke="#000000" stroke-width="1.4" fill="none" marker-end="url(#arrow)" /><rect x="560" y="175" width="280" height="62" rx="18" ry="18" stroke="#000000" stroke-width="1.2" fill="#ffffff" /><text x="700.0" y="208.0" text-anchor="middle" style="font-family:Times New Roman, Times, serif;font-size:18px;fill:#000000;"><tspan x="700.0" dy="0">Login</tspan></text><line x1="700" y1="237" x2="700" y2="275" stroke="#000000" stroke-width="1.4" fill="none" marker-end="url(#arrow)" /><rect x="480" y="275" width="440" height="70" rx="18" ry="18" stroke="#000000" stroke-width="1.2" fill="#ffffff" /><text x="700.0" y="301.2" text-anchor="middle" style="font-family:Times New Roman, Times, serif;font-size:18px;fill:#000000;"><tspan x="700.0" dy="0">Identity</tspan><tspan x="700.0" dy="21.599999999999998">Verification</tspan></text><line x1="700" y1="345" x2="700" y2="385" stroke="#000000" stroke-width="1.4" fill="none" marker-end="url(#arrow)" /><rect x="540" y="385" width="320" height="62" rx="18" ry="18" stroke="#000000" stroke-width="1.2" fill="#ffffff" /><text x="700.0" y="418.0" text-anchor="middle" style="font-family:Times New Roman, Times, serif;font-size:18px;fill:#000000;"><tspan x="700.0" dy="0">Start Exam</tspan></text><line x1="700" y1="447" x2="700" y2="485" stroke="#000000" stroke-width="1.4" fill="none" marker-end="url(#arrow)" /><rect x="410" y="485" width="580" height="78" rx="18" ry="18" stroke="#000000" stroke-width="1.2" fill="#ffffff" /><text x="700.0" y="482.8" text-anchor="middle" style="font-family:Times New Roman, Times, serif;font-size:18px;fill:#000000;"><tspan x="700.0" dy="0">Continuous</tspan><tspan x="700.0" dy="21.599999999999998">Monitoring</tspan><tspan x="700.0" dy="21.599999999999998">Face check Gaze</tspan><tspan x="700.0" dy="21.599999999999998">tracking Phone</tspan><tspan x="700.0" dy="21.599999999999998">detection</tspan></text><line x1="700" y1="563" x2="700" y2="620" stroke="#000000" stroke-width="1.4" fill="none" marker-end="url(#arrow)" /><polygon points="700,648 756,690 700,732 644,690" stroke="#000000" stroke-width="1.2" fill="#ffffff" /><text x="700" y="683.4" text-anchor="middle" style="font-family:Times New Roman, Times, serif;font-size:16px;fill:#000000;"><tspan x="700" dy="0">Suspicious</tspan><tspan x="700" dy="19.2">activity?</tspan></text><line x1="756" y1="690" x2="980" y2="690" stroke="#000000" stroke-width="1.4" fill="none" marker-end="url(#arrow)" /><text x="865" y="670" text-anchor="middle" style="font-family:Times New Roman, Times, serif;font-size:16px;font-weight:normal;font-style:normal;fill:#000000;">YES</text><rect x="1020" y="648" width="240" height="64" rx="18" ry="18" stroke="#000000" stroke-width="1.2" fill="#ffffff" /><text x="1140.0" y="682.0" text-anchor="middle" style="font-family:Times New Roman, Times, serif;font-size:18px;fill:#000000;"><tspan x="1140.0" dy="0">Generate Alert</tspan></text><line x1="980" y1="690" x2="1020" y2="690" stroke="#000000" stroke-width="1.4" fill="none" marker-end="url(#arrow)" /><line x1="700" y1="732" x2="700" y2="790" stroke="#000000" stroke-width="1.4" fill="none" marker-end="url(#arrow)" /><text x="720" y="770" text-anchor="start" style="font-family:Times New Roman, Times, serif;font-size:16px;font-weight:normal;font-style:normal;fill:#000000;">NO</text><rect x="530" y="790" width="340" height="62" rx="18" ry="18" stroke="#000000" stroke-width="1.2" fill="#ffffff" /><text x="700.0" y="823.0" text-anchor="middle" style="font-family:Times New Roman, Times, serif;font-size:18px;fill:#000000;"><tspan x="700.0" dy="0">Continue Monitoring</tspan></text><line x1="700" y1="852" x2="700" y2="920" stroke="#000000" stroke-width="1.4" fill="none" marker-end="url(#arrow)" /><rect x="560" y="920" width="280" height="62" rx="18" ry="18" stroke="#000000" stroke-width="1.2" fill="#ffffff" /><text x="700.0" y="953.0" text-anchor="middle" style="font-family:Times New Roman, Times, serif;font-size:18px;fill:#000000;"><tspan x="700.0" dy="0">End Exam</tspan></text><line x1="700" y1="982" x2="700" y2="1010" stroke="#000000" stroke-width="1.4" fill="none" marker-end="url(#arrow)" /><rect x="540" y="1010" width="320" height="62" rx="18" ry="18" stroke="#000000" stroke-width="1.2" fill="#ffffff" /><text x="700.0" y="1043.0" text-anchor="middle" style="font-family:Times New Roman, Times, serif;font-size:18px;fill:#000000;"><tspan x="700.0" dy="0">Store Results</tspan></text><line x1="700" y1="1072" x2="700" y2="1100" stroke="#000000" stroke-width="1.4" fill="none" marker-end="url(#arrow)" /><circle cx="700" cy="1138" r="22" stroke="#000000" stroke-width="1.2" fill="#ffffff" /><text x="930" y="720" text-anchor="start" style="font-family:Times New Roman, Times, serif;font-size:16px;font-weight:normal;font-style:normal;fill:#000000;">Decision loop</text>
</svg>